<svg width="256" height="256" viewBox="0 0 256 256" fill="none" xmlns="http://www.w3.org/2000/svg">
<g clip-path="url(#clip0_652_3046)">
<rect width="256" height="256" fill="white"/>
<rect width="256" height="256" fill="url(#paint0_linear_652_3046)"/>
<path d="M127.927 58C148.498 58.0002 165.174 74.6768 165.174 95.248H189.578C195.253 95.2481 199.853 99.8478 199.854 105.522V137.904C197.242 137.058 194.501 136.581 191.711 136.51L191.005 136.5H190.995C183.459 136.508 176.222 139.468 170.876 144.748C165.695 149.865 162.7 156.756 162.51 163.995L162.5 164.697V164.702C162.5 168.795 164.06 173.459 166.549 178.427C168.456 182.233 171.033 186.459 174.239 191.081C166.666 195.48 157.866 198 148.478 198H143.34C137.665 198 133.064 193.399 133.064 187.725V159.468H122.789V187.725C122.789 193.399 118.189 198 112.514 198H107.376C79.0019 198 56.0002 174.998 56 146.624V105.522C56.0002 99.8478 60.6007 95.248 66.2754 95.248H90.6787C90.6787 74.6767 107.355 58 127.927 58ZM127.927 70.8438C114.449 70.8438 103.522 81.7703 103.522 95.248H112.514C118.188 95.248 122.789 99.8478 122.789 105.522V133.779H133.064V105.522C133.065 99.8478 137.665 95.248 143.34 95.248H152.33C152.33 81.7704 141.404 70.8439 127.927 70.8438Z" fill="white"/>
<path d="M191 141C184.637 141.007 178.537 143.506 174.038 147.95C169.539 152.393 167.008 158.418 167 164.702C167 170.806 171.785 180.358 181.223 193.093C182.347 194.613 183.818 195.85 185.517 196.703C187.216 197.556 189.094 198 191 198C192.906 198 194.784 197.556 196.483 196.703C198.182 195.85 199.653 194.613 200.777 193.093C210.215 180.358 215 170.806 215 164.702C214.992 158.418 212.461 152.393 207.962 147.95C203.463 143.506 197.363 141.007 191 141ZM191 174.15C189.098 174.15 187.238 173.593 185.656 172.549C184.075 171.505 182.842 170.022 182.114 168.286C181.386 166.55 181.195 164.64 181.567 162.797C181.938 160.954 182.854 159.261 184.199 157.933C185.544 156.604 187.258 155.699 189.124 155.333C190.989 154.966 192.923 155.154 194.681 155.873C196.438 156.592 197.94 157.81 198.997 159.372C200.054 160.935 200.618 162.771 200.618 164.65C200.618 167.17 199.605 169.586 197.801 171.368C195.997 173.149 193.551 174.15 191 174.15Z" fill="white"/>
</g>
<defs>
<linearGradient id="paint0_linear_652_3046" x1="37.4387" y1="6.57707" x2="207.431" y2="256" gradientUnits="userSpaceOnUse">
<stop stop-color="#FF7D71"/>
<stop offset="1" stop-color="#F35B4C"/>
</linearGradient>
<clipPath id="clip0_652_3046">
<rect width="256" height="256" fill="white"/>
</clipPath>
</defs>
</svg>
