<svg width="19" height="24" viewBox="0 0 19 24" fill="none" xmlns="http://www.w3.org/2000/svg">
<path d="M9.36523 4.68293C9.36523 2.34146 11.1213 0 13.4628 0C13.4628 2.34146 11.7067 4.68293 9.36523 4.68293Z" fill="white"/>
<path d="M9.95122 7.4224C9.34842 7.4224 8.88195 7.23091 8.36068 7.01694C7.70062 6.74599 6.95268 6.43896 5.72879 6.43896C3.53836 6.43896 0 8.19442 0 12.8773C0 18.3238 3.63478 23.9999 5.97624 23.9999C6.76011 23.9999 7.4663 23.6922 8.14121 23.398C8.75888 23.1288 9.35037 22.871 9.95122 22.871C10.5521 22.871 11.1436 23.1288 11.7612 23.398C12.4361 23.6922 13.1423 23.9999 13.9262 23.9999C15.5566 23.9999 17.511 21.2478 18.7317 17.7375C16.8343 16.9406 15.6153 15.0649 15.6153 12.878C15.6153 10.9708 16.6287 9.7051 18.1463 8.78043C16.9756 7.02433 15.2352 6.43896 13.984 6.43896C12.7601 6.43896 12.0122 6.74599 11.3521 7.01694C10.8309 7.23091 10.554 7.4224 9.95122 7.4224Z" fill="white"/>
</svg>
