<svg width="44" height="39" viewBox="0 0 44 39" fill="none" xmlns="http://www.w3.org/2000/svg">
<path d="M19.9023 0C25.5949 0 30.21 4.61505 30.21 10.3076H36.9629C38.5332 10.3076 39.8065 11.5801 39.8066 13.1504V22.1113C39.084 21.8771 38.3255 21.7453 37.5537 21.7256L37.3584 21.7227H37.3555C35.2701 21.725 33.2674 22.5439 31.7881 24.0049C30.3545 25.4207 29.5264 27.328 29.4736 29.3311L29.4707 29.5254V29.5273C29.4708 30.6598 29.9022 31.9506 30.5908 33.3252C31.1183 34.378 31.8318 35.5467 32.7188 36.8252C30.6229 38.0427 28.1882 38.7412 25.5898 38.7412H24.168C22.5977 38.7411 21.3242 37.4678 21.3242 35.8975V28.0781H18.4814V35.8975C18.4814 37.4678 17.208 38.7412 15.6377 38.7412H14.2168C6.36517 38.7411 0.000150253 32.3761 0 24.5244V13.1504C9.354e-05 11.5802 1.2726 10.3078 2.84277 10.3076H9.5957C9.5957 4.61517 14.21 0.000196872 19.9023 0ZM19.9023 3.55469C16.1729 3.55488 13.1494 6.57813 13.1494 10.3076H15.6377C17.208 10.3076 18.4814 11.5801 18.4814 13.1504V20.9697H21.3242V13.1504C21.3243 11.5801 22.5977 10.3077 24.168 10.3076H26.6553C26.6553 6.57801 23.6319 3.55469 19.9023 3.55469Z" fill="white"/>
<path d="M37.3779 22.9219C35.6223 22.9238 33.9392 23.6174 32.6978 24.8507C31.4563 26.0839 30.758 27.756 30.7559 29.5001C30.7559 31.1941 32.0761 33.8451 34.6802 37.3794C34.9902 37.8013 35.3961 38.1446 35.8649 38.3812C36.3337 38.6179 36.8521 38.7412 37.3779 38.7412C37.9037 38.7412 38.4221 38.6179 38.8908 38.3812C39.3596 38.1446 39.7655 37.8013 40.0755 37.3794C42.6796 33.8451 43.9999 31.1941 43.9999 29.5001C43.9978 27.756 43.2994 26.0839 42.058 24.8507C40.8165 23.6174 39.1334 22.9238 37.3779 22.9219ZM37.3779 32.1221C36.853 32.1221 36.3399 31.9675 35.9035 31.6778C35.4671 31.3881 35.1269 30.9763 34.926 30.4945C34.7252 30.0128 34.6726 29.4826 34.775 28.9712C34.8774 28.4598 35.1302 27.99 35.5013 27.6212C35.8725 27.2525 36.3453 27.0014 36.8601 26.8997C37.3749 26.7979 37.9085 26.8502 38.3935 27.0497C38.8784 27.2493 39.2929 27.5872 39.5845 28.0208C39.8761 28.4544 40.0317 28.9641 40.0317 29.4856C40.0317 30.1848 39.7521 30.8554 39.2544 31.3499C38.7567 31.8443 38.0817 32.1221 37.3779 32.1221Z" fill="white"/>
</svg>
