<svg width="52" height="46" viewBox="0 0 52 46" fill="none" xmlns="http://www.w3.org/2000/svg">
<path d="M23.5205 0C30.2483 0.000102141 35.7021 5.45409 35.7021 12.1816H43.6855C45.5415 12.1816 47.0469 13.6861 47.0469 15.542V26.1328C46.1924 25.8557 45.2955 25.6991 44.3828 25.6758L44.1523 25.6729H44.1494C41.6846 25.6755 39.3178 26.6434 37.5693 28.3701C35.8751 30.0433 34.8954 32.2968 34.833 34.6641L34.8301 34.8945V34.8955C34.8301 36.234 35.3404 37.7591 36.1543 39.3838C36.7779 40.6285 37.6203 42.0109 38.6689 43.5225C36.1921 44.9608 33.3145 45.7851 30.2441 45.7852H28.5635C26.7076 45.7851 25.2031 44.2807 25.2031 42.4248V33.1836H21.8438V42.4248C21.8438 44.2807 20.3384 45.7852 18.4824 45.7852H16.8027C7.52295 45.7851 0 38.2628 0 28.9834V15.542C0 13.6862 1.50449 12.1818 3.36035 12.1816H11.3389C11.3389 5.45407 16.7927 6.27337e-05 23.5205 0ZM23.5205 4.2002C19.1126 4.20026 15.5391 7.77393 15.5391 12.1816H18.4824C20.3384 12.1816 21.8438 13.6861 21.8438 15.542V24.7832H25.2031V15.542C25.2031 13.6861 26.7076 12.1817 28.5635 12.1816H31.502C31.502 7.77396 27.9283 4.2003 23.5205 4.2002Z" fill="#FF6F61"/>
<path d="M44.1741 27.0889C42.0992 27.0911 40.11 27.9109 38.6428 29.3684C37.1755 30.8258 36.3501 32.8019 36.3477 34.8631C36.3477 36.8651 37.9081 39.9982 40.9858 44.1751C41.3522 44.6738 41.8319 45.0794 42.3859 45.3591C42.94 45.6388 43.5526 45.7845 44.1741 45.7845C44.7955 45.7845 45.4082 45.6388 45.9622 45.3591C46.5162 45.0794 46.996 44.6738 47.3624 44.1751C50.4401 39.9982 52.0005 36.8651 52.0005 34.8631C51.998 32.8019 51.1726 30.8258 49.7054 29.3684C48.2382 27.9109 46.2489 27.0911 44.1741 27.0889ZM44.1741 37.9619C43.5537 37.9619 42.9473 37.7792 42.4315 37.4368C41.9157 37.0944 41.5137 36.6078 41.2763 36.0384C41.0389 35.4691 40.9768 34.8425 41.0978 34.2381C41.2188 33.6337 41.5176 33.0785 41.9562 32.6427C42.3949 32.2069 42.9537 31.9102 43.5622 31.7899C44.1706 31.6697 44.8012 31.7314 45.3744 31.9672C45.9475 32.2031 46.4374 32.6025 46.782 33.1149C47.1266 33.6273 47.3106 34.2297 47.3106 34.846C47.3106 35.6724 46.9801 36.465 46.3919 37.0493C45.8037 37.6337 45.0059 37.9619 44.1741 37.9619Z" fill="#FF6F61"/>
</svg>
