<svg width="29" height="32" viewBox="0 0 29 32" fill="none" xmlns="http://www.w3.org/2000/svg">
<path d="M1.52042 0L17.0153 14.9667L21.2635 10.8334L2.48186 0.282801C2.16884 0.10605 1.83345 0.00815789 1.52042 0ZM0.223591 0.696125C0.0838471 0.938137 0 1.22366 0 1.54453V30.6295C0 30.8634 0.0503084 31.0727 0.134155 31.2604L15.9868 15.9456L0.223591 0.696125ZM22.5604 11.5513L18.0215 15.9456L22.5604 20.3182L28.1054 17.2291C28.8936 16.7859 29.0054 16.223 28.9998 15.9239C28.9914 15.429 28.67 14.9667 28.1278 14.6839C27.6555 14.4364 24.1479 12.4487 22.5604 11.5513ZM17.0153 16.9245L1.38627 32C1.64619 31.9864 1.92848 31.932 2.1912 31.7825C2.80328 31.4371 15.1819 24.4731 15.1819 24.4731L21.2859 21.0578L17.0153 16.9245Z" fill="white"/>
</svg>
