<svg width="96" height="96" viewBox="0 0 96 96" fill="none" xmlns="http://www.w3.org/2000/svg">
<path d="M88.7768 36.1304C92.8187 41.1313 95.3979 47.3696 95.8455 54.205C96.0515 57.3505 96.0515 60.6078 95.8455 63.7533C95.4621 69.6083 92.8363 75.0284 89.7471 79.606C87.9534 82.8107 89.1397 86.8136 91.008 90.3073C92.3543 92.8249 93.0296 94.0851 92.4893 94.9947C91.9485 95.9046 90.738 95.9351 88.3221 95.9931C83.5448 96.1078 80.323 94.7695 77.7658 92.9088C76.3153 91.8533 75.5891 91.3242 75.0892 91.2636C74.5892 91.2033 73.6053 91.6035 71.6392 92.4026L70.2658 92.8901C68.8547 93.3235 67.3466 93.5943 65.9345 93.687C60.4661 94.0456 54.7453 94.0464 49.2657 93.687C39.3917 93.0392 30.7578 87.9478 25.3219 80.3888C27.3593 81.0083 29.48 81.3872 31.4719 81.5185C37.5959 81.9217 43.9918 81.9225 50.1282 81.5185C70.8253 80.1548 87.269 63.5962 88.6221 42.8709C88.7668 40.6511 88.8073 38.386 88.7768 36.1304Z" fill="#FF6F61"/>
<path d="M49.6562 74.3348C66.7229 73.2109 80.3174 59.5519 81.436 42.4043C81.6549 39.0486 81.6549 35.5735 81.436 32.2178C80.3174 15.0701 66.7229 1.4112 49.6562 0.287285C43.8337 -0.0961525 37.7546 -0.0953704 31.944 0.287285C14.8773 1.4112 1.28279 15.0701 0.164179 32.2178C-0.0547264 35.5735 -0.0547264 39.0486 0.164179 42.4043C0.57159 48.6496 3.35961 54.4322 6.64188 59.315C8.54765 62.7333 7.28993 66.9998 5.30488 70.7265C3.8736 73.4135 3.15796 74.757 3.73257 75.7275C4.30716 76.6981 5.59069 76.729 8.15767 76.791C13.2342 76.9134 16.6574 75.4876 19.3746 73.5025C20.9158 72.3767 21.6863 71.8138 22.2174 71.749C22.7485 71.6844 23.7939 72.1109 25.8836 72.9636C27.762 73.73 29.943 74.203 31.944 74.3348C37.7546 74.7174 43.8337 74.7182 49.6562 74.3348Z" fill="#FF6F61"/>
</svg>
