<svg width="96" height="96" viewBox="0 0 96 96" fill="none" xmlns="http://www.w3.org/2000/svg">
<path d="M0 52.9769C0 47.6825 0 45.0353 2.09408 43.4913C2.83757 42.9432 3.74118 42.5044 4.74824 42.2026C7.58468 41.3525 11.3125 42.1896 18.7681 43.8638C24.4601 45.142 27.3061 45.7811 30.1819 45.715C31.2381 45.6907 32.2881 45.5959 33.3166 45.4322C36.1169 44.9862 38.613 43.8652 43.6052 41.6231L50.9779 38.3118C57.3727 35.4398 60.5701 34.0038 64.2405 33.6726C67.9108 33.3415 71.5564 34.1602 78.8476 35.7975L85.0597 37.1925C90.3399 38.3782 92.98 38.9711 94.49 40.3825C96.0001 41.7939 96.0001 43.6687 96.0001 47.4183V76.6232C96.0001 81.9176 96.0001 84.5648 93.906 86.1088C93.1625 86.6569 92.2589 87.0957 91.2519 87.3975C88.4154 88.2476 84.6876 87.4105 77.232 85.7363C71.54 84.4581 68.694 83.819 65.8182 83.8851C64.762 83.9094 63.712 84.0041 62.6835 84.1679C59.8832 84.6139 57.3871 85.7349 52.3949 87.977L45.0222 91.2883C38.6274 94.1603 35.43 95.5963 31.7596 95.9275C28.0893 96.2586 24.4437 95.4399 17.1525 93.8026L10.9404 92.4076C5.66021 91.2219 3.02013 90.629 1.51006 89.2176C0 87.8062 0 85.9314 0 82.1818V52.9769Z" fill="#FFBCB5"/>
<path fill-rule="evenodd" clip-rule="evenodd" d="M47.9993 0C32.0934 0 19.1992 12.2501 19.1992 27.3614C19.1992 42.3543 28.3912 59.8496 42.7327 66.106C46.0759 67.5645 49.9226 67.5645 53.2658 66.106C67.6073 59.8496 76.7993 42.3543 76.7993 27.3614C76.7993 12.2501 63.9051 0 47.9993 0ZM47.9993 38.3999C53.3012 38.3999 57.5993 34.1019 57.5993 28.8C57.5993 23.498 53.3012 19.2 47.9993 19.2C42.6973 19.2 38.3992 23.498 38.3992 28.8C38.3992 34.1019 42.6973 38.3999 47.9993 38.3999Z" fill="#FF6F61"/>
</svg>
