<svg width="87" height="96" viewBox="0 0 87 96" fill="none" xmlns="http://www.w3.org/2000/svg">
<path d="M1.81208 14.7956C0 17.3773 0 25.0515 0 40.3999V47.9585C0 75.0213 20.347 88.1543 33.1131 93.7309C36.5761 95.2436 38.3076 96 43.2 96C48.0924 96 49.8239 95.2437 53.2869 93.7309C66.053 88.1544 86.4 75.0213 86.4 47.9585V40.3999C86.4 25.0515 86.4 17.3773 84.5879 14.7956C82.7758 12.2138 75.56 9.74379 61.1284 4.80381L58.3789 3.86264C50.8561 1.28755 47.0947 0 43.2 0C39.3053 0 35.5439 1.28755 28.0211 3.86264L25.2716 4.8038C10.84 9.74379 3.62415 12.2138 1.81208 14.7956Z" fill="#FF6F61"/>
<path d="M57.885 40.7975C59.2092 39.3144 59.0804 37.0387 57.5973 35.7145C56.1142 34.3903 53.8385 34.5191 52.5143 36.0022L38.0568 52.1946L33.885 47.5222C32.5608 46.0391 30.2851 45.9103 28.802 47.2345C27.3189 48.5587 27.1901 50.8344 28.5143 52.3175L35.3714 59.9975C36.0544 60.7625 37.0313 61.1998 38.0568 61.1998C39.0823 61.1998 40.0592 60.7625 40.7422 59.9975L57.885 40.7975Z" fill="#FFFDFC"/>
</svg>
